<?xml version="1.0" encoding="UTF-8" standalone="no"?>
<!DOCTYPE svg PUBLIC "-//W3C//DTD SVG 1.1//EN" "http://www.w3.org/Graphics/SVG/1.1/DTD/svg11.dtd">
<svg version="1.1" xmlns="http://www.w3.org/2000/svg" xmlns:xlink="http://www.w3.org/1999/xlink" preserveAspectRatio="xMidYMid meet" viewBox="0 0 640 640" width="640" height="640"><defs><path d="M640 320C640 496.61 496.61 640 320 640C143.39 640 0 496.61 0 320C0 143.39 143.39 0 320 0C496.61 0 640 143.39 640 320Z" id="ax3IkNmsl"></path><path d="M620 320C620 485.57 485.57 620 320 620C154.43 620 20 485.57 20 320C20 154.43 154.43 20 320 20C485.57 20 620 154.43 620 320Z" id="b7POZReJcX"></path><path d="M469.88 231.53C485.06 164.28 478.31 110.77 448.59 93.64C441.74 89.62 433.73 87.72 424.98 87.72C424.98 90.08 424.98 108.94 424.98 111.3C429.83 111.3 433.73 112.25 437 114.05C451.33 122.3 457.55 153.71 452.7 194.1C451.54 204.04 449.64 214.51 447.33 225.19C426.67 220.11 404.11 216.2 380.4 213.66C366.17 194.1 351.41 176.33 336.55 160.79C370.91 128.75 403.16 111.2 425.09 111.2C425.09 108.84 425.09 89.97 425.09 87.62C396.1 87.62 358.16 108.34 319.79 144.29C281.42 108.55 243.48 88.04 214.49 88.04C214.49 90.4 214.49 109.26 214.49 111.62C236.31 111.62 268.67 129.07 303.03 160.9C288.27 176.44 273.52 194.1 259.5 213.66C235.68 216.2 213.12 220.11 192.46 225.29C190.04 214.72 188.25 204.46 186.98 194.63C182.03 154.23 188.14 122.83 202.37 114.47C205.53 112.57 209.64 111.72 214.49 111.72C214.49 109.37 214.49 90.5 214.49 88.14C205.64 88.14 197.63 90.05 190.67 94.07C161.05 111.2 154.41 164.6 169.7 231.64C104.14 251.94 61.45 284.4 61.45 318.67C61.45 353.03 104.35 385.6 170.12 405.8C154.94 473.05 161.69 526.56 191.41 543.69C198.26 547.71 206.27 549.61 215.12 549.61C244.11 549.61 282.06 528.88 320.42 492.93C358.79 528.67 396.73 549.19 425.72 549.19C434.57 549.19 442.58 547.28 449.54 543.27C479.16 526.14 485.8 472.73 470.51 405.69C535.86 385.5 578.55 352.93 578.55 318.67C578.55 284.3 535.65 251.73 469.88 231.53ZM427.09 289.9C422.77 281.44 418.23 272.98 413.28 264.52C408.43 256.07 403.27 247.82 398.1 239.78C413.07 242 427.51 244.75 441.32 248.13C437.42 261.78 432.57 275.84 427.09 289.9ZM367.64 401.15C351.94 402.52 336.02 403.26 320 403.26C304.08 403.26 288.17 402.52 272.57 401.25C263.82 388.67 255.28 375.24 247.06 361.07C239.05 347.22 231.78 333.15 225.14 318.98C231.67 304.81 239.05 290.64 246.96 276.79C255.18 262.52 263.61 248.98 272.36 236.4C288.06 235.02 303.98 234.28 320 234.28C335.92 234.28 351.83 235.02 367.43 236.29C376.18 248.87 384.72 262.3 392.94 276.47C400.95 290.33 408.22 304.39 414.86 318.56C408.22 332.73 400.95 346.9 393.04 360.75C384.82 375.03 376.39 388.56 367.64 401.15ZM441.63 389.09C427.83 392.47 413.28 395.33 398.21 397.55C403.37 389.41 408.54 381.05 413.39 372.49C418.23 364.03 422.77 355.46 427.09 347.01C432.78 361.17 437.63 375.34 441.63 389.09ZM290.91 426C300.4 426.42 310.09 426.74 319.89 426.74C329.8 426.74 339.6 426.52 349.2 426C339.71 438.37 329.91 449.68 320.21 459.83C310.41 449.68 300.61 438.37 290.91 426ZM198.58 389.2C202.48 375.56 207.33 361.49 212.81 347.43C217.13 355.89 221.66 364.35 226.61 372.81C231.57 381.27 236.63 389.51 241.79 397.55C226.82 395.33 212.38 392.58 198.58 389.2ZM348.99 211.34C339.5 210.91 329.8 210.6 320 210.6C310.09 210.6 300.29 210.81 290.7 211.34C300.18 198.96 309.99 187.65 319.68 177.5C329.49 187.65 339.29 198.96 348.99 211.34ZM226.51 264.84C221.66 273.3 217.13 281.76 212.81 290.22C207.11 276.05 202.27 261.88 198.26 248.13C212.07 244.86 226.61 242 241.69 239.78C236.52 247.92 231.36 256.28 226.51 264.84ZM84.85 318.67C84.85 302.06 108.98 281.02 146.3 265.16C155.36 261.25 165.27 257.76 175.49 254.48C181.5 275.2 189.41 296.78 199.21 318.88C189.51 340.87 181.71 362.34 175.81 382.96C165.38 379.68 155.47 376.08 146.3 372.17C108.98 356.2 84.85 335.27 84.85 318.67ZM187.3 443.23C188.46 433.29 190.36 422.82 192.67 412.14C213.33 417.22 235.89 421.13 259.6 423.67C273.83 443.23 288.59 461 303.45 476.54C269.09 508.58 236.84 526.14 214.91 526.14C210.17 526.03 206.17 525.08 203 523.28C188.67 515.03 182.45 483.63 187.3 443.23ZM437.63 522.86C434.47 524.76 430.36 525.61 425.51 525.61C403.69 525.61 371.33 508.16 336.97 476.33C351.73 460.79 366.48 443.13 380.5 423.56C404.32 421.03 426.88 417.11 447.54 411.93C449.96 422.61 451.86 432.87 453.02 442.7C457.97 483.1 451.86 514.5 437.63 522.86ZM464.4 382.85C458.39 362.13 450.49 340.55 440.69 318.45C450.38 296.46 458.18 274.99 464.08 254.37C474.52 257.65 484.43 261.25 493.7 265.16C531.02 281.13 555.15 302.06 555.15 318.67C555.05 335.27 530.91 356.31 493.6 372.17C484.53 376.08 474.62 379.57 464.4 382.85Z" id="acDHi1kBV"></path><path d="M320 275.52C295.08 275.52 274.87 295.43 274.87 320C274.87 344.57 295.08 364.48 320 364.48C344.92 364.48 365.13 344.57 365.13 320C365.13 295.43 344.92 275.52 320 275.52Z" id="gdmu0okIL"></path><path d="" id="c1jR0x5wlz"></path></defs><g><g><g><use xlink:href="#ax3IkNmsl" opacity="1" fill="#61dafb" fill-opacity="1"></use></g><g><use xlink:href="#b7POZReJcX" opacity="1" fill="#1f1f39" fill-opacity="1"></use></g><g><use xlink:href="#acDHi1kBV" opacity="1" fill="#61dafb" fill-opacity="1"></use><g><use xlink:href="#acDHi1kBV" opacity="1" fill-opacity="0" stroke="#000000" stroke-width="1" stroke-opacity="0"></use></g></g><g><use xlink:href="#gdmu0okIL" opacity="1" fill="#61dafb" fill-opacity="1"></use><g><use xlink:href="#gdmu0okIL" opacity="1" fill-opacity="0" stroke="#000000" stroke-width="1" stroke-opacity="0"></use></g></g><g><use xlink:href="#c1jR0x5wlz" opacity="1" fill="#61dafb" fill-opacity="1"></use><g><use xlink:href="#c1jR0x5wlz" opacity="1" fill-opacity="0" stroke="#000000" stroke-width="1" stroke-opacity="0"></use></g></g></g></g></svg>