<?xml version="1.0" encoding="UTF-8" standalone="no"?>
<!DOCTYPE svg PUBLIC "-//W3C//DTD SVG 1.1//EN" "http://www.w3.org/Graphics/SVG/1.1/DTD/svg11.dtd">
<svg version="1.1" xmlns="http://www.w3.org/2000/svg" xmlns:xlink="http://www.w3.org/1999/xlink" preserveAspectRatio="xMidYMid meet" viewBox="0 0 640 640" width="640" height="640"><defs><path d="M560 320C560 450.25 452.46 556 320 556C187.54 556 80 450.25 80 320C80 189.75 187.54 84 320 84C452.46 84 560 189.75 560 320Z" id="b3KfNzIUe"></path><path d="M541.25 320C541.25 438.66 442.11 535 320 535C197.89 535 98.75 438.66 98.75 320C98.75 201.34 197.89 105 320 105C442.11 105 541.25 201.34 541.25 320Z" id="aNx6a0lQw"></path><path d="M428.14 256.49C439.08 208.14 434.22 169.67 412.78 157.36C407.84 154.47 402.06 153.1 395.75 153.1C395.75 154.8 395.75 168.36 395.75 170.05C399.25 170.05 402.06 170.74 404.42 172.03C414.76 177.96 419.24 200.54 415.75 229.58C414.91 236.72 413.54 244.25 411.87 251.93C396.97 248.28 380.7 245.46 363.6 243.64C353.33 229.58 342.69 216.8 331.97 205.63C356.75 182.6 380.02 169.98 395.83 169.98C395.83 168.28 395.83 154.72 395.83 153.03C374.92 153.03 347.56 167.92 319.89 193.77C292.22 168.08 264.85 153.33 243.94 153.33C243.94 155.02 243.94 168.59 243.94 170.28C259.68 170.28 283.02 182.82 307.8 205.71C297.16 216.88 286.51 229.58 276.4 243.64C259.22 245.46 242.96 248.28 228.06 252C226.31 244.4 225.01 237.03 224.1 229.96C220.53 200.92 224.94 178.34 235.2 172.33C237.48 170.97 240.45 170.36 243.94 170.36C243.94 168.66 243.94 155.1 243.94 153.41C237.56 153.41 231.78 154.77 226.76 157.66C205.4 169.98 200.61 208.37 211.64 256.56C164.35 271.16 133.56 294.5 133.56 319.13C133.56 343.83 164.5 367.25 211.94 381.77C200.99 430.11 205.86 468.58 227.3 480.89C232.24 483.78 238.01 485.15 244.4 485.15C265.3 485.15 292.67 470.25 320.34 444.4C348.01 470.1 375.38 484.85 396.28 484.85C402.67 484.85 408.45 483.48 413.46 480.59C434.83 468.27 439.62 429.88 428.59 381.69C475.72 367.17 506.51 343.76 506.51 319.13C506.51 294.42 475.57 271.01 428.14 256.49ZM397.27 298.45C394.16 292.37 390.89 286.29 387.31 280.2C383.82 274.12 380.09 268.19 376.37 262.42C387.16 264.01 397.58 265.99 407.54 268.42C404.72 278.23 401.23 288.34 397.27 298.45ZM354.4 378.42C343.07 379.41 331.59 379.94 320.04 379.94C308.56 379.94 297.08 379.41 285.83 378.5C279.52 369.45 273.36 359.8 267.43 349.61C261.66 339.65 256.41 329.54 251.62 319.35C256.33 309.17 261.66 298.98 267.36 289.02C273.29 278.76 279.37 269.03 285.68 259.98C297 259 308.48 258.46 320.04 258.46C331.52 258.46 343 259 354.25 259.91C360.56 268.95 366.71 278.61 372.64 288.79C378.42 298.75 383.67 308.86 388.45 319.05C383.67 329.24 378.42 339.42 372.72 349.38C366.79 359.64 360.71 369.37 354.4 378.42ZM407.76 369.75C397.8 372.19 387.31 374.24 376.44 375.84C380.17 369.98 383.89 363.98 387.39 357.82C390.89 351.74 394.16 345.58 397.27 339.5C401.38 349.69 404.87 359.87 407.76 369.75ZM299.06 396.28C305.9 396.59 312.89 396.82 319.96 396.82C327.11 396.82 334.18 396.66 341.1 396.28C334.25 405.18 327.18 413.31 320.19 420.61C313.12 413.31 306.05 405.18 299.06 396.28ZM232.46 369.83C235.28 360.02 238.77 349.91 242.73 339.8C245.84 345.88 249.11 351.97 252.69 358.05C256.26 364.13 259.91 370.06 263.63 375.84C252.84 374.24 242.42 372.26 232.46 369.83ZM340.94 241.97C334.1 241.66 327.11 241.43 320.04 241.43C312.89 241.43 305.82 241.59 298.9 241.97C305.75 233.07 312.82 224.94 319.81 217.64C326.88 224.94 333.95 233.07 340.94 241.97ZM252.61 280.43C249.11 286.51 245.84 292.6 242.73 298.68C238.62 288.49 235.13 278.3 232.24 268.42C242.2 266.06 252.69 264.01 263.56 262.42C259.83 268.27 256.11 274.27 252.61 280.43ZM150.44 319.13C150.44 307.19 167.85 292.06 194.76 280.66C201.3 277.85 208.44 275.34 215.82 272.98C220.15 287.88 225.85 303.39 232.92 319.28C225.93 335.09 220.3 350.52 216.04 365.35C208.52 362.99 201.37 360.4 194.76 357.59C167.85 346.11 150.44 331.06 150.44 319.13ZM224.33 408.68C225.17 401.53 226.54 394 228.21 386.33C243.11 389.98 259.38 392.79 276.48 394.61C286.74 408.68 297.38 421.45 308.1 432.62C283.32 455.66 260.06 468.27 244.25 468.27C240.83 468.2 237.94 467.51 235.66 466.22C225.32 460.29 220.83 437.71 224.33 408.68ZM404.87 465.92C402.59 467.29 399.63 467.89 396.13 467.89C380.4 467.89 357.06 455.35 332.28 432.47C342.92 421.29 353.56 408.6 363.67 394.54C380.85 392.71 397.12 389.9 412.02 386.17C413.77 393.85 415.14 401.23 415.97 408.3C419.55 437.33 415.14 459.91 404.87 465.92ZM424.18 365.27C419.85 350.37 414.15 334.86 407.08 318.97C414.07 303.16 419.7 287.73 423.96 272.91C431.48 275.26 438.63 277.85 445.32 280.66C472.23 292.14 489.64 307.19 489.64 319.13C489.56 331.06 472.15 346.19 445.24 357.59C438.7 360.4 431.56 362.91 424.18 365.27Z" id="a1aKVnvHP9"></path><path d="M319.96 284.39C300.78 284.39 285.22 299.94 285.22 319.13C285.22 338.31 300.78 353.87 319.96 353.87C339.15 353.87 354.7 338.31 354.7 319.13C354.7 299.94 339.15 284.39 319.96 284.39Z" id="e69LoQNgq"></path><path d="" id="c1jR0x5wlz"></path></defs><g><g><g><use xlink:href="#b3KfNzIUe" opacity="1" fill="#61dafb" fill-opacity="1"></use></g><g><use xlink:href="#aNx6a0lQw" opacity="1" fill="#1f1f39" fill-opacity="1"></use></g><g><use xlink:href="#a1aKVnvHP9" opacity="1" fill="#61dafb" fill-opacity="1"></use><g><use xlink:href="#a1aKVnvHP9" opacity="1" fill-opacity="0" stroke="#000000" stroke-width="1" stroke-opacity="0"></use></g></g><g><use xlink:href="#e69LoQNgq" opacity="1" fill="#61dafb" fill-opacity="1"></use><g><use xlink:href="#e69LoQNgq" opacity="1" fill-opacity="0" stroke="#000000" stroke-width="1" stroke-opacity="0"></use></g></g><g><use xlink:href="#c1jR0x5wlz" opacity="1" fill="#61dafb" fill-opacity="1"></use><g><use xlink:href="#c1jR0x5wlz" opacity="1" fill-opacity="0" stroke="#000000" stroke-width="1" stroke-opacity="0"></use></g></g></g></g></svg>